<?xml version="1.0" encoding="utf-8"?>
<!-- Generator: Adobe Illustrator 27.6.1, SVG Export Plug-In . SVG Version: 6.00 Build 0)  -->
<svg version="1.1" id="Layer_2_00000092458604375660126180000013935308930130057644_"
	 xmlns="http://www.w3.org/2000/svg" xmlns:xlink="http://www.w3.org/1999/xlink" x="0px" y="0px" viewBox="0 0 3886.254 105.55"
	 style="enable-background:new 0 0 3886.254 105.55;" xml:space="preserve">
<style type="text/css">
	.st0{fill:#FFFFFF;}
	.st1{fill:#FFFFFF;stroke:#000000;stroke-miterlimit:10;}
	.st2{fill:#131313;}
	.st3{fill:#131316;}
	.st4{fill:#EBEBF0;}
	.st5{fill:none;stroke:#FAFAFA;stroke-width:7;stroke-miterlimit:10;}
</style>
<rect class="st0" width="3886.249" height="105.405"/>
<rect class="st1" width="3886.249" height="105.405"/>
<g id="Layer_1-2_00000030468401014599458890000009337185712464723073_">
	<g>
		<path class="st2" d="M3863.689,0.145H1947.1h-7.951H22.56C10.11,0.145,0,10.255,0,22.705v82.7h1916.589h53.071h1916.589v-82.7
			C3886.249,10.255,3876.139,0.145,3863.689,0.145z"/>
		<rect x="1472.146" y="104.275" class="st3" width="1969.67" height="1.13"/>
	</g>
</g>
<g id="Layer_1-2">
	<g>
		<rect y="104.42" class="st3" width="1969.67" height="1.13"/>
		<path class="st4" d="M71.794,72.857c-1.976,1.976-5.118,2.049-7.037,0.13l-13.16-13.16L37.94,73.483
			c-1.991,1.991-5.133,2.035-7.037,0.13c-1.905-1.905-1.861-5.046,0.13-7.037L44.689,52.92L31.5,39.731
			c-1.904-1.904-1.846-5.061,0.13-7.037s5.133-2.035,7.037-0.13l13.189,13.189l13.686-13.686c1.976-1.976,5.118-2.049,7.037-0.13
			s1.846,5.061-0.13,7.037L58.763,52.66l13.16,13.16C73.842,67.739,73.784,70.867,71.794,72.857z"/>
	</g>
</g>
<line class="st5" x1="122.763" y1="0.145" x2="122.763" y2="104.275"/>
</svg>
