<?xml version="1.0" encoding="UTF-8"?>
<svg id="Layer_2" data-name="Layer 2" xmlns="http://www.w3.org/2000/svg" viewBox="0 0 1969.67 105.82">
  <defs>
    <style>
      .cls-1 {
        fill: #ebebf0;
      }

      .cls-2 {
        fill: #ffb214;
      }

      .cls-3 {
        fill: #fd565e;
      }

      .cls-4 {
        fill: #9c9c9e;
      }

      .cls-5 {
        fill: #b6b6ba;
      }

      .cls-6 {
        fill: #303030;
      }

      .cls-7 {
        fill: #131316;
      }

      .cls-8 {
        fill: #131313;
      }

      .cls-9 {
        fill: #404040;
      }

      .cls-10 {
        fill: #25cb3b;
      }
    </style>
  </defs>
  <g id="Layer_1-2" data-name="Layer 1">
    <g>
      <path class="cls-8" d="m22.56,0h1924.54c12.45,0,22.56,10.11,22.56,22.56v82.7H0V22.56C0,10.11,10.11,0,22.56,0Z"/>
      <rect class="cls-7" x="0" y="104.7" width="1969.67" height="1.13"/>
      <circle class="cls-3" cx="66.88" cy="52.63" r="12.77" transform="translate(-17.63 62.71) rotate(-45)"/>
      <circle class="cls-2" cx="108.83" cy="52.63" r="12.77" transform="translate(-5.34 92.37) rotate(-45)"/>
      <circle class="cls-10" cx="149.55" cy="52.63" r="12.77" transform="translate(6.59 121.16) rotate(-45)"/>
      <g>
        <path class="cls-1" d="m396.48,66.76c-.62,0-1.24-.24-1.72-.71l-11.7-11.7c-.95-.95-.95-2.49,0-3.44l11.7-11.7c.95-.95,2.49-.95,3.44,0,.95.95.95,2.49,0,3.44l-9.98,9.98,9.98,9.98c.95.95.95,2.49,0,3.44-.47.47-1.1.71-1.72.71Z"/>
        <path class="cls-1" d="m455.04,66.76c-.62,0-1.24-.24-1.72-.71-.95-.95-.95-2.49,0-3.44l9.98-9.98-9.98-9.98c-.95-.95-.95-2.49,0-3.44.95-.95,2.49-.95,3.44,0l11.7,11.7c.95.95.95,2.49,0,3.44l-11.7,11.7c-.47.47-1.1.71-1.72.71Z"/>
      </g>
      <path class="cls-1" d="m1622.22,52.63c0,1.34-1.08,2.43-2.43,2.43h-9.26v9.26c0,1.35-1.09,2.43-2.43,2.43s-2.43-1.08-2.43-2.43v-9.26h-9.28c-1.34,0-2.43-1.09-2.43-2.43s1.09-2.43,2.43-2.43h9.28v-9.28c0-1.34,1.08-2.43,2.43-2.43s2.43,1.09,2.43,2.43v9.28h9.26c1.35,0,2.43,1.08,2.43,2.43Z"/>
      <path class="cls-1" d="m1718.87,41.39h-6.49v-6.08c0-1.35-1.08-2.43-2.43-2.43h-27.55c-1.35,0-2.43,1.08-2.43,2.43v25.53c0,1.34,1.08,2.43,2.43,2.43h6.48v6.08c0,1.34,1.09,2.43,2.43,2.43h27.56c1.34,0,2.43-1.09,2.43-2.43v-25.53c0-1.35-1.09-2.43-2.43-2.43Zm-34.04,17.02v-20.67h22.69v3.65h-16.21c-1.34,0-2.43,1.08-2.43,2.43v14.59h-4.05Zm31.61,8.51h-22.7v-20.67h22.7v20.67Z"/>
      <g>
        <path class="cls-1" d="m254.95,34.35h-40.93c-.67,0-1.22.53-1.22,1.22v29.98c0,.68.55,1.22,1.22,1.22h40.93c.67,0,1.22-.53,1.22-1.22v-29.98c0-.68-.55-1.22-1.22-1.22Zm-27.41,29.98h-12.3v-27.55h12.3v27.55Zm26.2,0h-23.77v-27.55h23.77v27.55Z"/>
        <path class="cls-1" d="m223.9,41.86h-5.01c-.67,0-1.22-.54-1.22-1.22s.54-1.22,1.22-1.22h5.01c.67,0,1.22.54,1.22,1.22s-.54,1.22-1.22,1.22Z"/>
        <path class="cls-1" d="m223.9,45.4h-5.01c-.67,0-1.22-.54-1.22-1.22s.54-1.22,1.22-1.22h5.01c.67,0,1.22.54,1.22,1.22s-.54,1.22-1.22,1.22Z"/>
        <path class="cls-1" d="m223.9,48.93h-5.01c-.67,0-1.22-.54-1.22-1.22s.54-1.22,1.22-1.22h5.01c.67,0,1.22.54,1.22,1.22s-.54,1.22-1.22,1.22Z"/>
      </g>
      <g>
        <path class="cls-1" d="m1810.67,43.85h-9.41c-.37,0-.67.3-.67.67v2.37c0,.37.3.67.67.67h5.49c.74,0,1.34.6,1.34,1.34v18.15c0,.74-.6,1.34-1.34,1.34h-19.4c-.74,0-1.34-.6-1.34-1.34v-18.15c0-.74.6-1.34,1.34-1.34h5.49c.37,0,.67-.3.67-.67v-2.37c0-.37-.3-.67-.67-.67h-9.42c-.74,0-1.34.6-1.34,1.34v25.56c0,.74.6,1.34,1.34,1.34h27.24c.74,0,1.34-.6,1.34-1.34v-25.56c0-.74-.6-1.34-1.34-1.34Z"/>
        <path class="cls-1" d="m1791.68,41.71l3.7-3.7v18.37c0,.34.27.61.61.61h2.13c.34,0,.61-.27.61-.61v-18.37l3.7,3.7c.51.51,1.34.51,1.85,0,.51-.51.51-1.34,0-1.85l-6.3-6.3c-.51-.51-1.34-.51-1.85,0l-6.3,6.3c-.26.26-.38.59-.38.93s.13.67.38.93c.51.51,1.34.51,1.85,0Z"/>
      </g>
      <g>
        <rect class="cls-6" x="586.78" y="27.1" width="900.75" height="51.06" rx="12.92" ry="12.92"/>
        <path class="cls-9" d="m1474.61,78.67h-874.91c-7.41,0-13.43-6.02-13.43-13.43v-25.22c0-7.41,6.03-13.43,13.43-13.43h874.91c7.41,0,13.43,6.02,13.43,13.43v25.22c0,7.41-6.03,13.43-13.43,13.43ZM599.7,27.61c-6.84,0-12.41,5.57-12.41,12.41v25.22c0,6.84,5.57,12.41,12.41,12.41h874.91c6.84,0,12.41-5.57,12.41-12.41v-25.22c0-6.84-5.57-12.41-12.41-12.41h-874.91Z"/>
        <g>
          <path class="cls-4" d="m664.58,49.66h-1.82c-.2-1.93-1.38-2.9-3.54-2.9-1.03,0-1.82.21-2.38.62-.56.41-.84.99-.84,1.74,0,.27.04.5.12.7.08.2.22.38.41.53.19.15.38.28.55.39.17.11.45.21.82.32.37.11.67.18.9.23.23.05.58.12,1.06.23.59.12,1.07.23,1.46.33.39.1.85.26,1.38.49.53.23.96.48,1.27.75.31.27.59.64.82,1.09.23.45.35.97.35,1.54,0,1-.28,1.84-.84,2.51-.56.67-1.24,1.14-2.04,1.41-.8.27-1.69.4-2.66.4-1.79,0-3.22-.42-4.29-1.27-1.07-.85-1.61-2.1-1.61-3.75h1.82c.04,1.21.45,2.1,1.22,2.65.77.55,1.78.83,3.02.83.97,0,1.81-.2,2.5-.61.69-.41,1.04-1.07,1.04-1.99,0-.43-.09-.79-.28-1.09-.19-.3-.48-.55-.88-.74-.4-.19-.8-.35-1.2-.47-.4-.12-.93-.25-1.58-.4-.09-.01-.16-.03-.2-.04-1.47-.33-2.43-.6-2.88-.8-1.39-.6-2.08-1.63-2.08-3.1,0-1.36.5-2.38,1.51-3.05,1.01-.67,2.23-1.01,3.65-1.01,1.56,0,2.81.37,3.74,1.12.93.75,1.43,1.86,1.48,3.34Z"/>
          <path class="cls-4" d="m675.99,56.46c-.52,2.4-2.02,3.6-4.5,3.6-1.52,0-2.71-.47-3.57-1.42-.86-.95-1.29-2.26-1.29-3.94s.44-3.02,1.33-4.05c.89-1.03,2.05-1.55,3.47-1.55,1.59,0,2.77.54,3.53,1.61.77,1.07,1.15,2.43,1.15,4.07v.24h-7.77l-.02.12c0,1.09.29,1.96.86,2.58.57.63,1.36.94,2.36.94.75,0,1.34-.17,1.77-.52.43-.35.77-.91,1.01-1.68h1.66Zm-1.64-2.82c-.08-.99-.38-1.76-.9-2.31-.52-.55-1.21-.83-2.06-.83s-1.51.28-2.06.84c-.55.56-.87,1.33-.98,2.3h6.01Z"/>
          <path class="cls-4" d="m687.06,58.37v1.32c-.35.13-.73.2-1.16.2-.97,0-1.47-.51-1.5-1.52-.97,1.09-2.22,1.64-3.74,1.64-1.01,0-1.82-.26-2.41-.78-.59-.52-.89-1.23-.89-2.14,0-1.84,1.22-2.92,3.66-3.22,1.44-.17,2.28-.3,2.5-.38.48-.16.74-.49.78-1,.01-.08.02-.17.02-.26,0-1.13-.78-1.7-2.34-1.7-.8,0-1.41.16-1.82.49-.41.33-.66.86-.74,1.61h-1.66c.03-1.11.42-1.97,1.18-2.58.76-.61,1.81-.92,3.14-.92,1.45,0,2.54.33,3.24,1,.23.21.39.49.5.84.11.35.17.63.18.85.01.22.02.55.02.99,0,.52-.01,1.29-.04,2.31-.03,1.02-.04,1.79-.04,2.29,0,.37.05.64.15.79.1.15.28.23.55.23.11,0,.25-.02.42-.06Zm-2.74-4c-.12.09-.25.17-.38.24-.13.07-.3.12-.51.16-.21.04-.35.07-.42.09-.07.02-.25.05-.53.08-.28.03-.43.05-.44.05-.41.05-.68.09-.81.11-.13.02-.37.08-.72.17-.35.09-.6.2-.75.32-.15.12-.29.3-.43.53-.14.23-.21.51-.21.83,0,.53.18.95.55,1.26.37.31.87.46,1.51.46.81,0,1.54-.24,2.18-.72.64-.48.96-1.05.96-1.7v-1.88Z"/>
          <path class="cls-4" d="m694.05,49.16v1.76c-.12-.01-.27-.02-.44-.02-.55,0-1.02.08-1.42.25s-.72.38-.95.65c-.23.27-.42.6-.57,1s-.24.8-.29,1.2c-.05.4-.07.85-.07,1.36v4.36h-1.7v-10.33h1.62v2.22c.68-1.64,1.95-2.46,3.82-2.46Z"/>
          <path class="cls-4" d="m703.86,55.96c-.15,1.24-.62,2.23-1.41,2.96-.79.73-1.83,1.1-3.09,1.1-1.56,0-2.77-.48-3.62-1.45-.85-.97-1.28-2.26-1.28-3.87,0-1.72.45-3.09,1.34-4.09.89-1.01,2.1-1.51,3.62-1.51,1.27,0,2.28.32,3.04.95.76.63,1.21,1.54,1.34,2.71h-1.76c-.31-1.49-1.17-2.24-2.6-2.24-.99,0-1.77.36-2.34,1.09-.57.73-.86,1.71-.86,2.95s.27,2.24.82,2.96c.55.72,1.3,1.08,2.26,1.08.77,0,1.4-.23,1.89-.68.49-.45.8-1.11.93-1.96h1.72Z"/>
          <path class="cls-4" d="m707.42,45.47v5.39c.76-1.15,1.89-1.72,3.38-1.72,2.32,0,3.48,1.17,3.48,3.52v7.07h-1.7v-6.67c0-.79-.16-1.39-.49-1.81-.33-.42-.92-.63-1.77-.63-1.04,0-1.79.33-2.23,1-.45.67-.67,1.62-.67,2.86v5.24h-1.7v-14.25h1.7Z"/>
          <path class="cls-4" d="m723.24,50.58c.91-.99,2.14-1.48,3.7-1.48s2.78.47,3.64,1.42c.87.95,1.3,2.28,1.3,3.98s-.43,3.11-1.3,4.08c-.87.97-2.09,1.46-3.66,1.46s-2.81-.48-3.7-1.44c-.89-.96-1.34-2.3-1.34-4s.45-3.04,1.36-4.02Zm6.04,1.03c-.58-.73-1.37-1.09-2.37-1.09s-1.8.37-2.38,1.1c-.59.73-.88,1.72-.88,2.94s.29,2.26.87,2.97c.58.71,1.39,1.07,2.43,1.07s1.78-.36,2.35-1.08c.57-.72.85-1.72.85-2.98s-.29-2.21-.87-2.93Z"/>
          <path class="cls-4" d="m739.29,49.16v1.76c-.12-.01-.27-.02-.44-.02-.55,0-1.02.08-1.42.25s-.72.38-.95.65c-.23.27-.42.6-.57,1s-.24.8-.29,1.2c-.05.4-.07.85-.07,1.36v4.36h-1.7v-10.33h1.62v2.22c.68-1.64,1.95-2.46,3.82-2.46Z"/>
          <path class="cls-4" d="m754.97,56.46c-.52,2.4-2.02,3.6-4.5,3.6-1.52,0-2.71-.47-3.57-1.42-.86-.95-1.29-2.26-1.29-3.94s.44-3.02,1.33-4.05c.89-1.03,2.05-1.55,3.47-1.55,1.59,0,2.77.54,3.53,1.61.77,1.07,1.15,2.43,1.15,4.07v.24h-7.77l-.02.12c0,1.09.29,1.96.86,2.58.57.63,1.36.94,2.36.94.75,0,1.34-.17,1.77-.52.43-.35.77-.91,1.01-1.68h1.66Zm-1.64-2.82c-.08-.99-.38-1.76-.9-2.31-.52-.55-1.21-.83-2.06-.83s-1.51.28-2.06.84c-.55.56-.87,1.33-.98,2.3h6.01Z"/>
          <path class="cls-4" d="m758.49,49.4v1.6c.85-1.25,2.03-1.88,3.52-1.88,1.21,0,2.09.32,2.63.95.54.63.81,1.56.81,2.79v6.87h-1.7v-6.09c0-.51-.02-.9-.05-1.19-.03-.29-.12-.59-.25-.92-.13-.33-.36-.56-.68-.71-.32-.15-.73-.22-1.24-.22-1.96,0-2.94,1.24-2.94,3.72v5.41h-1.7v-10.33h1.6Z"/>
          <path class="cls-4" d="m772.44,49.4v1.4h-2.06v6.03c0,.33,0,.55.01.66,0,.11.04.25.11.43s.18.3.34.35c.16.05.39.08.68.08.25,0,.56-.02.92-.06v1.46c-.48.05-.91.08-1.3.08-.48,0-.88-.05-1.2-.16-.32-.11-.56-.23-.73-.36-.17-.13-.29-.37-.37-.71-.08-.34-.13-.63-.14-.86-.01-.23-.02-.62-.02-1.17v-5.77h-1.74v-1.4h1.74v-3.06h1.7v3.06h2.06Z"/>
          <path class="cls-4" d="m783.15,56.46c-.52,2.4-2.02,3.6-4.5,3.6-1.52,0-2.71-.47-3.57-1.42-.86-.95-1.29-2.26-1.29-3.94s.44-3.02,1.33-4.05c.89-1.03,2.05-1.55,3.47-1.55,1.59,0,2.77.54,3.53,1.61.77,1.07,1.15,2.43,1.15,4.07v.24h-7.77l-.02.12c0,1.09.29,1.96.86,2.58.57.63,1.36.94,2.36.94.75,0,1.34-.17,1.77-.52.43-.35.77-.91,1.01-1.68h1.66Zm-1.64-2.82c-.08-.99-.38-1.76-.9-2.31-.52-.55-1.21-.83-2.06-.83s-1.51.28-2.06.84c-.55.56-.87,1.33-.98,2.3h6.01Z"/>
          <path class="cls-4" d="m790.46,49.16v1.76c-.12-.01-.27-.02-.44-.02-.55,0-1.02.08-1.42.25s-.72.38-.95.65c-.23.27-.42.6-.57,1-.15.4-.24.8-.29,1.2-.05.4-.07.85-.07,1.36v4.36h-1.7v-10.33h1.62v2.22c.68-1.64,1.95-2.46,3.82-2.46Z"/>
          <path class="cls-4" d="m796.37,49.4h1.88l2.36,8.51,2.1-8.51h1.86l2.18,8.51,2.34-8.51h1.76l-3.3,10.33h-1.8l-2.12-8.17-2.1,8.17h-1.84l-3.32-10.33Z"/>
          <path class="cls-4" d="m821.31,56.46c-.52,2.4-2.02,3.6-4.5,3.6-1.52,0-2.71-.47-3.57-1.42-.86-.95-1.29-2.26-1.29-3.94s.44-3.02,1.33-4.05c.89-1.03,2.05-1.55,3.47-1.55,1.59,0,2.77.54,3.53,1.61.77,1.07,1.15,2.43,1.15,4.07v.24h-7.77l-.02.12c0,1.09.29,1.96.86,2.58.57.63,1.36.94,2.36.94.75,0,1.34-.17,1.77-.52.43-.35.77-.91,1.01-1.68h1.66Zm-1.64-2.82c-.08-.99-.38-1.76-.9-2.31-.52-.55-1.21-.83-2.06-.83s-1.51.28-2.06.84c-.55.56-.87,1.33-.98,2.3h6.01Z"/>
          <path class="cls-4" d="m824.91,45.47v5.35c.75-1.13,1.89-1.7,3.42-1.7,1.41,0,2.55.49,3.39,1.47.85.98,1.27,2.29,1.27,3.93s-.43,3-1.3,4c-.87,1-2.02,1.5-3.46,1.5-1.64,0-2.78-.6-3.42-1.8v1.5h-1.6v-14.25h1.7Zm3.16,5.08c-1.09,0-1.91.39-2.43,1.18-.53.79-.79,1.76-.79,2.9,0,1.21.29,2.18.87,2.89.58.71,1.36,1.07,2.35,1.07s1.71-.37,2.29-1.11c.58-.74.87-1.72.87-2.95s-.29-2.18-.86-2.9c-.57-.72-1.34-1.08-2.3-1.08Z"/>
          <path class="cls-4" d="m842.77,52.4h-1.7c-.11-1.25-.95-1.88-2.52-1.88-.65,0-1.17.13-1.54.38-.37.25-.56.59-.56,1.02,0,.12.01.24.04.35.03.11.08.21.15.3.07.09.14.16.2.23.06.07.16.13.3.19.14.06.25.11.32.15.07.04.21.08.4.13.19.05.33.08.41.1.08.02.24.06.47.11.23.05.38.09.45.1.49.11.86.19,1.11.26.25.07.59.19,1.02.37.43.18.76.37.99.56.23.19.43.46.61.8.18.34.27.72.27,1.15,0,1-.39,1.81-1.17,2.41-.78.61-1.82.91-3.11.91-1.4,0-2.48-.31-3.23-.92-.75-.61-1.16-1.5-1.21-2.66h1.68c.09,1.45,1.03,2.18,2.8,2.18.76,0,1.37-.16,1.83-.47.46-.31.69-.73.69-1.25,0-.35-.12-.63-.36-.86-.24-.23-.51-.39-.8-.49-.29-.1-.71-.22-1.26-.35-.08-.01-.14-.03-.18-.04-.12-.03-.38-.08-.77-.17-.39-.09-.68-.16-.85-.21-.17-.05-.42-.14-.75-.25-.33-.11-.57-.23-.73-.36-.16-.13-.34-.29-.53-.48-.19-.19-.33-.42-.41-.68-.08-.26-.12-.56-.12-.89,0-.93.36-1.67,1.07-2.22.71-.55,1.67-.82,2.87-.82s2.21.29,2.97.86c.77.57,1.15,1.39,1.15,2.44Z"/>
          <path class="cls-4" d="m846.91,45.47v2.08h-1.72v-2.08h1.72Zm0,3.92v10.33h-1.72v-10.33h1.72Z"/>
          <path class="cls-4" d="m853.98,49.4v1.4h-2.06v6.03c0,.33,0,.55.01.66,0,.11.04.25.11.43s.18.3.34.35c.16.05.39.08.68.08.25,0,.56-.02.92-.06v1.46c-.48.05-.91.08-1.3.08-.48,0-.88-.05-1.2-.16-.32-.11-.56-.23-.73-.36-.17-.13-.29-.37-.37-.71-.08-.34-.13-.63-.14-.86-.01-.23-.02-.62-.02-1.17v-5.77h-1.74v-1.4h1.74v-3.06h1.7v3.06h2.06Z"/>
          <path class="cls-4" d="m864.69,56.46c-.52,2.4-2.02,3.6-4.5,3.6-1.52,0-2.71-.47-3.57-1.42-.86-.95-1.29-2.26-1.29-3.94s.44-3.02,1.33-4.05c.89-1.03,2.05-1.55,3.47-1.55,1.59,0,2.77.54,3.53,1.61.77,1.07,1.15,2.43,1.15,4.07v.24h-7.77l-.02.12c0,1.09.29,1.96.86,2.58.57.63,1.36.94,2.36.94.75,0,1.34-.17,1.77-.52.43-.35.77-.91,1.01-1.68h1.66Zm-1.64-2.82c-.08-.99-.38-1.76-.9-2.31-.52-.55-1.21-.83-2.06-.83s-1.51.28-2.06.84c-.55.56-.87,1.33-.98,2.3h6.01Z"/>
          <path class="cls-4" d="m873.78,49.4v1.6c.85-1.25,2.03-1.88,3.52-1.88,1.21,0,2.09.32,2.63.95.54.63.81,1.56.81,2.79v6.87h-1.7v-6.09c0-.51-.02-.9-.05-1.19-.03-.29-.12-.59-.25-.92-.13-.33-.36-.56-.68-.71-.32-.15-.73-.22-1.24-.22-1.96,0-2.94,1.24-2.94,3.72v5.41h-1.7v-10.33h1.6Z"/>
          <path class="cls-4" d="m892.45,58.37v1.32c-.35.13-.73.2-1.16.2-.97,0-1.47-.51-1.5-1.52-.97,1.09-2.22,1.64-3.74,1.64-1.01,0-1.82-.26-2.41-.78-.59-.52-.89-1.23-.89-2.14,0-1.84,1.22-2.92,3.66-3.22,1.44-.17,2.28-.3,2.5-.38.48-.16.74-.49.78-1,.01-.08.02-.17.02-.26,0-1.13-.78-1.7-2.34-1.7-.8,0-1.41.16-1.82.49-.41.33-.66.86-.74,1.61h-1.66c.03-1.11.42-1.97,1.18-2.58.76-.61,1.81-.92,3.14-.92,1.45,0,2.54.33,3.24,1,.23.21.39.49.5.84.11.35.17.63.18.85.01.22.02.55.02.99,0,.52-.01,1.29-.04,2.31-.03,1.02-.04,1.79-.04,2.29,0,.37.05.64.15.79.1.15.28.23.55.23.11,0,.25-.02.42-.06Zm-2.74-4c-.12.09-.25.17-.38.24-.13.07-.3.12-.51.16s-.35.07-.42.09c-.07.02-.25.05-.53.08-.28.03-.43.05-.44.05-.41.05-.68.09-.81.11-.13.02-.37.08-.72.17-.35.09-.6.2-.75.32-.15.12-.29.3-.43.53-.14.23-.21.51-.21.83,0,.53.18.95.55,1.26.37.31.87.46,1.51.46.81,0,1.54-.24,2.18-.72.64-.48.96-1.05.96-1.7v-1.88Z"/>
          <path class="cls-4" d="m895.66,49.4v1.5c.45-.61.94-1.06,1.46-1.34.52-.28,1.15-.42,1.9-.42,1.41,0,2.37.59,2.86,1.78.89-1.2,2.03-1.8,3.42-1.8,1.07,0,1.88.3,2.43.89.55.59.83,1.42.83,2.49v7.23h-1.7v-6.51c0-.85-.13-1.5-.4-1.93-.27-.43-.82-.65-1.66-.65-1.76,0-2.64,1.07-2.64,3.22v5.87h-1.7v-6.63c0-.79-.13-1.39-.39-1.81-.26-.42-.76-.63-1.51-.63-1.05,0-1.78.32-2.19.97-.41.65-.61,1.53-.61,2.63v5.47h-1.7v-10.33h1.6Z"/>
          <path class="cls-4" d="m919.96,56.46c-.52,2.4-2.02,3.6-4.5,3.6-1.52,0-2.71-.47-3.57-1.42-.86-.95-1.29-2.26-1.29-3.94s.44-3.02,1.33-4.05c.89-1.03,2.05-1.55,3.47-1.55,1.59,0,2.77.54,3.53,1.61.77,1.07,1.15,2.43,1.15,4.07v.24h-7.77l-.02.12c0,1.09.29,1.96.86,2.58.57.63,1.36.94,2.36.94.75,0,1.34-.17,1.77-.52.43-.35.77-.91,1.01-1.68h1.66Zm-1.64-2.82c-.08-.99-.38-1.76-.9-2.31-.52-.55-1.21-.83-2.06-.83s-1.51.28-2.06.84c-.55.56-.87,1.33-.98,2.3h6.01Z"/>
        </g>
        <path class="cls-5" d="m639.61,58.23l-3.09-3.09c.75-1.03,1.2-2.31,1.2-3.68,0-3.46-2.82-6.27-6.27-6.27s-6.27,2.82-6.27,6.27,2.82,6.27,6.27,6.27c1.31,0,2.52-.4,3.53-1.1l3.11,3.11c.21.21.49.32.76.32s.55-.11.76-.32c.42-.42.42-1.1,0-1.52Zm-4.74-4.49c-.32.5-.77.93-1.28,1.24h0c-.62.39-1.36.61-2.14.61-2.27,0-4.12-1.85-4.12-4.12s1.85-4.12,4.12-4.12,4.12,1.85,4.12,4.12c0,.85-.26,1.62-.7,2.27Z"/>
      </g>
    </g>
  </g>
</svg>