<?xml version="1.0" encoding="utf-8"?>
<!-- Generator: Adobe Illustrator 27.6.1, SVG Export Plug-In . SVG Version: 6.00 Build 0)  -->
<svg version="1.1" id="Layer_2_00000092458604375660126180000013935308930130057644_"
	 xmlns="http://www.w3.org/2000/svg" xmlns:xlink="http://www.w3.org/1999/xlink" x="0px" y="0px" viewBox="0 0 3886.254 105.55"
	 style="enable-background:new 0 0 3886.254 105.55;" xml:space="preserve">
<style type="text/css">
	.st0{fill:#131313;}
	.st1{fill:#131316;}
	.st2{fill:#EBEBF0;}
	.st3{fill:none;stroke:#FAFAFA;stroke-width:5;stroke-miterlimit:10;}
</style>
<g id="Layer_1-2_00000030468401014599458890000009337185712464723073_">
	<g>
		<path class="st0" d="M3863.689,0.145H1947.1h-7.951H22.56C10.11,0.145,0,10.255,0,22.705v82.7h1916.589h53.071h1916.589v-82.7
			C3886.249,10.255,3876.139,0.145,3863.689,0.145z"/>
		<rect x="1472.146" y="104.275" class="st1" width="1969.67" height="1.13"/>
	</g>
</g>
<g id="Layer_1-2">
	<g>
		<rect x="7" y="102.42" class="st1" width="1969.67" height="1.13"/>
		<path class="st2" d="M78.794,70.857c-1.976,1.976-5.118,2.049-7.037,0.13l-13.16-13.16L44.94,71.483
			c-1.991,1.991-5.133,2.035-7.037,0.13s-1.861-5.046,0.13-7.037L51.689,50.92L38.5,37.731c-1.904-1.904-1.846-5.061,0.13-7.037
			c1.976-1.976,5.133-2.035,7.037-0.13l13.189,13.189l13.686-13.686c1.976-1.976,5.118-2.049,7.037-0.13
			c1.919,1.919,1.846,5.061-0.13,7.037L65.763,50.66l13.16,13.16C80.842,65.739,80.784,68.867,78.794,70.857z"/>
	</g>
</g>
<line class="st3" x1="122.763" y1="0.145" x2="122.763" y2="104.275"/>
</svg>
